<svg width="20" height="18" viewBox="0 0 20 18" fill="none" xmlns="http://www.w3.org/2000/svg">
<path d="M1 3.74998H11.6289C11.7841 4.1885 12.0714 4.56814 12.4512 4.83665C12.8311 5.10516 13.2848 5.24934 13.75 5.24934C14.2152 5.24934 14.6689 5.10516 15.0488 4.83665C15.4286 4.56814 15.7159 4.1885 15.8711 3.74998H19C19.1989 3.74998 19.3897 3.67096 19.5303 3.5303C19.671 3.38965 19.75 3.19889 19.75 2.99997C19.75 2.80106 19.671 2.6103 19.5303 2.46964C19.3897 2.32899 19.1989 2.24997 19 2.24997H15.8711C15.7159 1.81145 15.4286 1.43181 15.0488 1.1633C14.6689 0.894787 14.2152 0.75061 13.75 0.75061C13.2848 0.75061 12.8311 0.894787 12.4512 1.1633C12.0714 1.43181 11.7841 1.81145 11.6289 2.24997H1C0.801088 2.24997 0.610322 2.32899 0.46967 2.46964C0.329018 2.6103 0.25 2.80106 0.25 2.99997C0.25 3.19889 0.329018 3.38965 0.46967 3.5303C0.610322 3.67096 0.801088 3.74998 1 3.74998Z" fill="#40484E"/>
<path d="M19 14.25H15.8711C15.7159 13.8114 15.4286 13.4318 15.0488 13.1633C14.6689 12.8948 14.2152 12.7506 13.75 12.7506C13.2848 12.7506 12.8311 12.8948 12.4512 13.1633C12.0714 13.4318 11.7841 13.8114 11.6289 14.25H1C0.801088 14.25 0.610322 14.329 0.46967 14.4696C0.329018 14.6103 0.25 14.8011 0.25 15C0.25 15.1989 0.329018 15.3896 0.46967 15.5303C0.610322 15.671 0.801088 15.75 1 15.75H11.6289C11.7841 16.1885 12.0714 16.5681 12.4512 16.8366C12.8311 17.1052 13.2848 17.2493 13.75 17.2493C14.2152 17.2493 14.6689 17.1052 15.0488 16.8366C15.4286 16.5681 15.7159 16.1885 15.8711 15.75H19C19.1989 15.75 19.3897 15.671 19.5303 15.5303C19.671 15.3896 19.75 15.1989 19.75 15C19.75 14.8011 19.671 14.6103 19.5303 14.4696C19.3897 14.329 19.1989 14.25 19 14.25Z" fill="#40484E"/>
<path d="M19 8.24997H8.37109C8.2159 7.81145 7.92861 7.43181 7.54876 7.1633C7.16891 6.89479 6.71517 6.75061 6.25 6.75061C5.78483 6.75061 5.33109 6.89479 4.95124 7.1633C4.57139 7.43181 4.2841 7.81145 4.12891 8.24997H1C0.801088 8.24997 0.610322 8.32899 0.46967 8.46964C0.329018 8.61029 0.25 8.80106 0.25 8.99997C0.25 9.19888 0.329018 9.38965 0.46967 9.5303C0.610322 9.67095 0.801088 9.74997 1 9.74997H4.12891C4.2841 10.1885 4.57139 10.5681 4.95124 10.8366C5.33109 11.1052 5.78483 11.2493 6.25 11.2493C6.71517 11.2493 7.16891 11.1052 7.54876 10.8366C7.92861 10.5681 8.2159 10.1885 8.37109 9.74997H19C19.1989 9.74997 19.3897 9.67095 19.5303 9.5303C19.671 9.38965 19.75 9.19888 19.75 8.99997C19.75 8.80106 19.671 8.61029 19.5303 8.46964C19.3897 8.32899 19.1989 8.24997 19 8.24997Z" fill="#40484E"/>
</svg>
